# xmcd CD database file
#
# Track frame offsets:
#	150
#	26113
#	56716
#	84047
#	107541
#	143028
#	180686
#	202278
#	240227
#	266501
#
# Disc length: 3942 seconds
#
# Revision: 0
# Processed by: cddbd v1.5.1PL0 Copyright (c) Steve Scherf et al.
# Submitted via: CDex 1.51
#
DISCID=820f640a
DTITLE=Daniele Malvisi - Contaminato
DYEAR=2003
DGENRE=Jazz
TTITLE0=Il passatempo
TTITLE1=One sound for four
TTITLE2=Gli occhi di Kigali
TTITLE3=Le cose che odio
TTITLE4=Ornitoblindo's Song
TTITLE5=Contaminato
TTITLE6=Ugly Hate
TTITLE7=M.O.M.
TTITLE8=Veduta Notturna
TTITLE9=Dati IE
EXTD=YEAR: 2003
EXTT0=
EXTT1=
EXTT2=
EXTT3=
EXTT4=
EXTT5=
EXTT6=
EXTT7=
EXTT8=
EXTT9=
PLAYORDER=
